# xmcd CD database file
#
# Track frame offsets:
#	150
#	19614
#	43035
#	63090
#	79484
#	101477
#	113998
#	128680
#	181638
#	222560
#	247724
#	272338
#
# Disc length: 4321 seconds
#
# Revision: 0
# Processed by: cddbd v1.5.1PL2 Copyright (c) Steve Scherf et al.
# Submitted via: CDex 1.51
#
DISCID=9610df0c
DTITLE=John Coltrane  - Ballads
DYEAR=1900
DGENRE=Jazz
TTITLE0=Say it (over and over again)
TTITLE1=You don't know what love is
TTITLE2=Too young to go steady
TTITLE3=All or nothing at all
TTITLE4=I wish I knew
TTITLE5=It's easy to remenber
TTITLE6=Nancy (with the laughing face)
TTITLE7=Lonnie's lament
TTITLE8=Ise one
TTITLE9=Dear Lord
TTITLE10=Welcome
TTITLE11=Attaining
EXTD=
EXTT0=
EXTT1=
EXTT2=
EXTT3=
EXTT4=
EXTT5=
EXTT6=
EXTT7=
EXTT8=
EXTT9=
EXTT10=
EXTT11=
PLAYORDER=
